<svg version="1.1" xmlns="http://www.w3.org/2000/svg" viewBox="-289.582152548475 -636.9260336467664 707.7216812121122 1367.2034664198768" fill="none" stroke="black" stroke-width="0.6%" vector-effect="non-scaling-stroke">
    <path d="M -288.58215 363.66454 L 0.01604 729.27743 L 417.13953 528.49891 L 417.13953 84.98485 L 128.54134 -280.62804 L 58.81181 -247.06438" />
    <path d="M -288.58215 363.66454 L -288.58215 -79.84952 L 0.01604 285.76337 L 417.13953 84.98485" />
    <path d="M 0.01604 729.27743 L 0.01604 285.76337" />
    <path d="M -56.18819 -191.7102 L -288.58215 -79.84952" />
    <path d="M -56.18819 -77.20242 A 57.5 44.90121 180 1 0 58.81181 -77.20242" />
    <path d="M 50.25997 -350.63024 A 57.5 44.90121 360 0 1 58.81181 -327.06949 L 58.81181 -77.20242" />
    <path d="M 58.81181 -327.06949 A 57.5 44.90121 360 0 1 -47.63635 -303.50875 L 50.25997 -350.63024" />
    <path d="M -47.63635 -303.50875 L -48.47299 -303.58366 L -49.26952 -303.67749 L -50.02529 -303.79017 L -50.73969 -303.92161 L -51.41216 -304.0717 L -52.04214 -304.24032 L -52.62913 -304.42733 L -53.17266 -304.63259 L -53.67228 -304.85593 L -54.12761 -305.09716 L -54.53826 -305.3561 L -54.90391 -305.63254 L -55.22426 -305.92625 L -55.49906 -306.23699" />
    <path d="M -163.44441 -628.59601 A 57.5 30.57634 321.71404 0 0 -253.71116 -557.34355 L -55.49906 -306.23699" />
    <path d="M -47.63635 -303.50875 A 57.5 30.57634 141.71404 0 1 46.44518 -362.69573 A 57.5 30.57634 141.71404 0 1 50.25997 -350.63024" />
    <path d="M -56.18819 -307.11002 L -56.18819 -77.20242" />
    <path d="M -163.44441 -628.59601 L 46.44518 -362.69573" />
</svg>